<mxfile host="app.diagrams.net" modified="2024-04-05T22:30:47.114Z" agent="Mozilla/5.0 (Macintosh; Intel Mac OS X 10_15_7) AppleWebKit/537.36 (KHTML, like Gecko) Chrome/123.0.0.0 Safari/537.36" etag="8K7LQ9WIvzKC3UtmVwiX" version="24.2.2" type="device">
  <diagram id="AIra0pvackN1RxZxVPas" name="Page-1">
    <mxGraphModel dx="1224" dy="2246" grid="1" gridSize="10" guides="1" tooltips="1" connect="1" arrows="1" fold="1" page="1" pageScale="1" pageWidth="850" pageHeight="1100" math="0" shadow="0">
      <root>
        <mxCell id="0" />
        <mxCell id="1" parent="0" />
        <mxCell id="b4ZN2M5RfPYAqQMjHC3d-1" value="frontend" style="ellipse;whiteSpace=wrap;html=1;aspect=fixed;" parent="1" vertex="1">
          <mxGeometry x="55" y="300" width="80" height="80" as="geometry" />
        </mxCell>
        <mxCell id="b4ZN2M5RfPYAqQMjHC3d-27" style="edgeStyle=orthogonalEdgeStyle;rounded=0;orthogonalLoop=1;jettySize=auto;html=1;exitX=1;exitY=0.5;exitDx=0;exitDy=0;strokeColor=#010103;" parent="1" source="b4ZN2M5RfPYAqQMjHC3d-3" target="b4ZN2M5RfPYAqQMjHC3d-8" edge="1">
          <mxGeometry relative="1" as="geometry" />
        </mxCell>
        <mxCell id="b4ZN2M5RfPYAqQMjHC3d-3" value="backend&lt;div&gt;&lt;br/&gt;&lt;/div&gt;" style="ellipse;whiteSpace=wrap;html=1;aspect=fixed;" parent="1" vertex="1">
          <mxGeometry x="90" y="-60" width="80" height="80" as="geometry" />
        </mxCell>
        <mxCell id="b4ZN2M5RfPYAqQMjHC3d-8" value="CrunchyDB" style="ellipse;whiteSpace=wrap;html=1;aspect=fixed;" parent="1" vertex="1">
          <mxGeometry x="460" y="120" width="130" height="130" as="geometry" />
        </mxCell>
        <mxCell id="DNz0pwb5H6Iw8uUJaAUe-7" style="edgeStyle=orthogonalEdgeStyle;rounded=0;orthogonalLoop=1;jettySize=auto;html=1;entryX=0;entryY=0.5;entryDx=0;entryDy=0;strokeColor=#010103;" parent="1" source="b4ZN2M5RfPYAqQMjHC3d-10" target="b4ZN2M5RfPYAqQMjHC3d-8" edge="1">
          <mxGeometry relative="1" as="geometry">
            <mxPoint x="445" y="210" as="targetPoint" />
          </mxGeometry>
        </mxCell>
        <mxCell id="b4ZN2M5RfPYAqQMjHC3d-10" value="Backup CronJob" style="ellipse;whiteSpace=wrap;html=1;aspect=fixed;" parent="1" vertex="1">
          <mxGeometry x="60" y="147.5" width="75" height="75" as="geometry" />
        </mxCell>
        <mxCell id="9xZVyRgoyZn5UuLwTAI5-3" value="" style="curved=1;endArrow=classic;html=1;exitX=1;exitY=1;exitDx=0;exitDy=0;entryX=1;entryY=0.5;entryDx=0;entryDy=0;strokeColor=#010103;" parent="1" source="b4ZN2M5RfPYAqQMjHC3d-8" target="b4ZN2M5RfPYAqQMjHC3d-8" edge="1">
          <mxGeometry width="50" height="50" relative="1" as="geometry">
            <mxPoint x="590" y="200" as="sourcePoint" />
            <mxPoint x="560" y="206" as="targetPoint" />
            <Array as="points">
              <mxPoint x="620" y="260" />
              <mxPoint x="640" y="200" />
              <mxPoint x="630" y="200" />
              <mxPoint x="600" y="180" />
            </Array>
          </mxGeometry>
        </mxCell>
        <mxCell id="jZ5XmgkILTjiQiPbq-w5-3" style="edgeStyle=orthogonalEdgeStyle;rounded=0;orthogonalLoop=1;jettySize=auto;html=1;entryX=1;entryY=0;entryDx=0;entryDy=0;strokeColor=#010103;" parent="1" source="jZ5XmgkILTjiQiPbq-w5-2" target="b4ZN2M5RfPYAqQMjHC3d-8" edge="1">
          <mxGeometry relative="1" as="geometry" />
        </mxCell>
        <mxCell id="jZ5XmgkILTjiQiPbq-w5-2" value="backend-mid" style="ellipse;whiteSpace=wrap;html=1;aspect=fixed;" parent="1" vertex="1">
          <mxGeometry x="1080" y="-10" width="80" height="80" as="geometry" />
        </mxCell>
        <mxCell id="KdRspWGC8xVXoO0oMTLA-1" value="metabase" style="ellipse;whiteSpace=wrap;html=1;aspect=fixed;" parent="1" vertex="1">
          <mxGeometry x="990" y="530" width="80" height="80" as="geometry" />
        </mxCell>
        <mxCell id="KdRspWGC8xVXoO0oMTLA-2" value="" style="endArrow=classic;html=1;rounded=0;exitX=0;exitY=0.5;exitDx=0;exitDy=0;entryX=1;entryY=0.5;entryDx=0;entryDy=0;" parent="1" source="KdRspWGC8xVXoO0oMTLA-1" target="b4ZN2M5RfPYAqQMjHC3d-8" edge="1">
          <mxGeometry width="50" height="50" relative="1" as="geometry">
            <mxPoint x="400" y="190" as="sourcePoint" />
            <mxPoint x="450" y="140" as="targetPoint" />
            <Array as="points">
              <mxPoint x="690" y="420" />
            </Array>
          </mxGeometry>
        </mxCell>
        <mxCell id="Sw6ZCzjTQ-pOdQDlZojL-9" style="edgeStyle=orthogonalEdgeStyle;rounded=0;orthogonalLoop=1;jettySize=auto;html=1;exitX=0;exitY=0.5;exitDx=0;exitDy=0;entryX=0.5;entryY=1;entryDx=0;entryDy=0;" parent="1" source="Sw6ZCzjTQ-pOdQDlZojL-2" target="b4ZN2M5RfPYAqQMjHC3d-8" edge="1">
          <mxGeometry relative="1" as="geometry" />
        </mxCell>
        <mxCell id="Sw6ZCzjTQ-pOdQDlZojL-2" value="prometheus" style="ellipse;whiteSpace=wrap;html=1;aspect=fixed;" parent="1" vertex="1">
          <mxGeometry x="680" y="530" width="80" height="80" as="geometry" />
        </mxCell>
        <mxCell id="Sw6ZCzjTQ-pOdQDlZojL-4" value="Text" style="text;html=1;align=center;verticalAlign=middle;whiteSpace=wrap;rounded=0;" parent="1" vertex="1">
          <mxGeometry x="325" y="160" width="60" height="30" as="geometry" />
        </mxCell>
        <mxCell id="Sw6ZCzjTQ-pOdQDlZojL-5" value="&lt;div style=&quot;color: rgb(212, 212, 212); background-color: rgb(30, 30, 30); font-family: Menlo, Monaco, &amp;quot;Courier New&amp;quot;, monospace; line-height: 18px; white-space: pre;&quot;&gt;&lt;div style=&quot;line-height: 18px;&quot;&gt;&lt;div style=&quot;line-height: 18px;&quot;&gt;&lt;div&gt;    - &lt;span style=&quot;color: #73bcf7;&quot;&gt;ports&lt;/span&gt;:&lt;/div&gt;&lt;div&gt;        - &lt;span style=&quot;color: #73bcf7;&quot;&gt;protocol&lt;/span&gt;: &lt;span style=&quot;color: #f0ab00;&quot;&gt;TCP&lt;/span&gt;&lt;/div&gt;&lt;div&gt;          &lt;span style=&quot;color: #73bcf7;&quot;&gt;port&lt;/span&gt;: &lt;span style=&quot;color: #ace12e;&quot;&gt;9187&lt;/span&gt;&lt;/div&gt;&lt;div&gt;      &lt;span style=&quot;color: #73bcf7;&quot;&gt;from&lt;/span&gt;:&lt;/div&gt;&lt;div&gt;        - &lt;span style=&quot;color: #73bcf7;&quot;&gt;namespaceSelector&lt;/span&gt;:&lt;/div&gt;&lt;div&gt;            &lt;span style=&quot;color: #73bcf7;&quot;&gt;matchLabels&lt;/span&gt;:&lt;/div&gt;&lt;div&gt;              &lt;span style=&quot;color: #73bcf7;&quot;&gt;environment&lt;/span&gt;: &lt;span style=&quot;color: #f0ab00;&quot;&gt;tools&lt;/span&gt;&lt;/div&gt;&lt;div&gt;              &lt;span style=&quot;color: #73bcf7;&quot;&gt;name&lt;/span&gt;: &lt;span style=&quot;color: #f0ab00;&quot;&gt;0ab226&lt;/span&gt;&lt;/div&gt;&lt;div&gt;        - &lt;span style=&quot;color: #73bcf7;&quot;&gt;podSelector&lt;/span&gt;:&lt;/div&gt;&lt;div&gt;            &lt;span style=&quot;color: #73bcf7;&quot;&gt;matchLabels&lt;/span&gt;:&lt;/div&gt;&lt;div&gt;              &lt;span style=&quot;color: #73bcf7;&quot;&gt;name&lt;/span&gt;: &lt;span style=&quot;color: #f0ab00;&quot;&gt;crunchy-prometheus&lt;/span&gt;&lt;/div&gt;&lt;/div&gt;&lt;/div&gt;&lt;/div&gt;" style="text;html=1;align=left;verticalAlign=middle;whiteSpace=wrap;rounded=0;" parent="1" vertex="1">
          <mxGeometry x="230" y="340" width="280" height="210" as="geometry" />
        </mxCell>
        <mxCell id="Sw6ZCzjTQ-pOdQDlZojL-6" value="&lt;div style=&quot;background-color: rgb(30, 30, 30); font-family: Menlo, Monaco, &amp;quot;Courier New&amp;quot;, monospace; line-height: 18px; white-space: pre;&quot;&gt;&lt;div style=&quot;color: rgb(212, 212, 212);&quot;&gt;    - &lt;span style=&quot;color: #73bcf7;&quot;&gt;ports&lt;/span&gt;:&lt;/div&gt;&lt;div style=&quot;color: rgb(212, 212, 212);&quot;&gt;        - &lt;span style=&quot;color: #73bcf7;&quot;&gt;protocol&lt;/span&gt;: &lt;span style=&quot;color: #f0ab00;&quot;&gt;TCP&lt;/span&gt;&lt;/div&gt;&lt;div style=&quot;color: rgb(212, 212, 212);&quot;&gt;          &lt;span style=&quot;color: #73bcf7;&quot;&gt;port&lt;/span&gt;: &lt;span style=&quot;color: #ace12e;&quot;&gt;5432&lt;/span&gt;&lt;/div&gt;&lt;div style=&quot;color: rgb(212, 212, 212);&quot;&gt;      &lt;span style=&quot;color: #73bcf7;&quot;&gt;from&lt;/span&gt;:&lt;/div&gt;&lt;div style=&quot;color: rgb(212, 212, 212);&quot;&gt;        - &lt;span style=&quot;color: #73bcf7;&quot;&gt;namespaceSelector&lt;/span&gt;:&lt;/div&gt;&lt;div style=&quot;color: rgb(212, 212, 212);&quot;&gt;            &lt;span style=&quot;color: #73bcf7;&quot;&gt;matchLabels&lt;/span&gt;:&lt;/div&gt;&lt;div style=&quot;&quot;&gt;&lt;font color=&quot;#d4d4d4&quot;&gt;              &lt;/font&gt;&lt;span style=&quot;color: rgb(115, 188, 247);&quot;&gt;environment&lt;/span&gt;&lt;font color=&quot;#d4d4d4&quot;&gt;: &lt;/font&gt;&lt;font color=&quot;#f0ab00&quot;&gt;test&lt;/font&gt;&lt;/div&gt;&lt;div style=&quot;color: rgb(212, 212, 212);&quot;&gt;              &lt;span style=&quot;color: #73bcf7;&quot;&gt;name&lt;/span&gt;: &lt;span style=&quot;color: #f0ab00;&quot;&gt;30b186&lt;/span&gt;&lt;/div&gt;&lt;div style=&quot;color: rgb(212, 212, 212);&quot;&gt;        - &lt;span style=&quot;color: #73bcf7;&quot;&gt;podSelector&lt;/span&gt;:&lt;/div&gt;&lt;div style=&quot;color: rgb(212, 212, 212);&quot;&gt;            &lt;span style=&quot;color: #73bcf7;&quot;&gt;matchLabels&lt;/span&gt;:&lt;/div&gt;&lt;div style=&quot;color: rgb(212, 212, 212);&quot;&gt;              &lt;span style=&quot;color: #73bcf7;&quot;&gt;app&lt;/span&gt;: &lt;span style=&quot;color: #f0ab00;&quot;&gt;metabase&lt;/span&gt;&lt;/div&gt;&lt;/div&gt;" style="text;html=1;align=left;verticalAlign=middle;whiteSpace=wrap;rounded=0;" parent="1" vertex="1">
          <mxGeometry x="800" y="260" width="230" height="210" as="geometry" />
        </mxCell>
        <mxCell id="Sw6ZCzjTQ-pOdQDlZojL-7" value="&lt;div style=&quot;color: rgb(212, 212, 212); background-color: rgb(30, 30, 30); font-family: Menlo, Monaco, &amp;quot;Courier New&amp;quot;, monospace; line-height: 18px; white-space: pre;&quot;&gt;&lt;div&gt;    - &lt;span style=&quot;color: #73bcf7;&quot;&gt;from&lt;/span&gt;:&lt;/div&gt;&lt;div&gt;        - &lt;span style=&quot;color: #73bcf7;&quot;&gt;podSelector&lt;/span&gt;:&lt;/div&gt;&lt;div&gt;            &lt;span style=&quot;color: #73bcf7;&quot;&gt;matchLabels&lt;/span&gt;:&lt;/div&gt;&lt;div&gt;              &lt;span style=&quot;background-color: rgb(251, 251, 251); color: rgb(0, 0, 0); font-family: Helvetica; white-space: normal;&quot;&gt;postgres-operator.crunchydata.com/cluster: cthub-test-crunchy&lt;/span&gt;&lt;/div&gt;&lt;/div&gt;" style="text;html=1;align=left;verticalAlign=middle;whiteSpace=wrap;rounded=0;" parent="1" vertex="1">
          <mxGeometry x="640" y="140" width="570" height="90" as="geometry" />
        </mxCell>
        <mxCell id="Sw6ZCzjTQ-pOdQDlZojL-10" value="&lt;div style=&quot;color: rgb(212, 212, 212); background-color: rgb(30, 30, 30); font-family: Menlo, Monaco, &amp;quot;Courier New&amp;quot;, monospace; line-height: 18px; white-space: pre;&quot;&gt;&lt;div&gt;    - &lt;span style=&quot;color: #73bcf7;&quot;&gt;ports&lt;/span&gt;:&lt;/div&gt;&lt;div&gt;        - &lt;span style=&quot;color: #73bcf7;&quot;&gt;protocol&lt;/span&gt;: &lt;span style=&quot;color: #f0ab00;&quot;&gt;TCP&lt;/span&gt;&lt;/div&gt;&lt;div&gt;          &lt;span style=&quot;color: #73bcf7;&quot;&gt;port&lt;/span&gt;: &lt;span style=&quot;color: #ace12e;&quot;&gt;5432&lt;/span&gt;&lt;/div&gt;&lt;div&gt;      &lt;span style=&quot;color: #73bcf7;&quot;&gt;from&lt;/span&gt;:&lt;/div&gt;&lt;div&gt;        - &lt;span style=&quot;color: #73bcf7;&quot;&gt;podSelector&lt;/span&gt;:&lt;/div&gt;&lt;div&gt;            &lt;span style=&quot;color: #73bcf7;&quot;&gt;matchLabels&lt;/span&gt;:&lt;/div&gt;&lt;div&gt;              &lt;span style=&quot;color: #73bcf7;&quot;&gt;openshift.io/deployer-pod.type&lt;/span&gt;: &lt;span style=&quot;color: #f0ab00;&quot;&gt;hook-mid&lt;/span&gt;&lt;/div&gt;&lt;/div&gt;" style="text;html=1;align=left;verticalAlign=middle;whiteSpace=wrap;rounded=0;" parent="1" vertex="1">
          <mxGeometry x="620" y="-110" width="400" height="140" as="geometry" />
        </mxCell>
        <mxCell id="Sw6ZCzjTQ-pOdQDlZojL-11" value="&lt;div style=&quot;color: rgb(212, 212, 212); background-color: rgb(30, 30, 30); font-family: Menlo, Monaco, &amp;quot;Courier New&amp;quot;, monospace; line-height: 18px; white-space: pre;&quot;&gt;&lt;div&gt;    - &lt;span style=&quot;color: #73bcf7;&quot;&gt;ports&lt;/span&gt;:&lt;/div&gt;&lt;div&gt;        - &lt;span style=&quot;color: #73bcf7;&quot;&gt;protocol&lt;/span&gt;: &lt;span style=&quot;color: #f0ab00;&quot;&gt;TCP&lt;/span&gt;&lt;/div&gt;&lt;div&gt;          &lt;span style=&quot;color: #73bcf7;&quot;&gt;port&lt;/span&gt;: &lt;span style=&quot;color: #ace12e;&quot;&gt;5432&lt;/span&gt;&lt;/div&gt;&lt;div&gt;      &lt;span style=&quot;color: #73bcf7;&quot;&gt;from&lt;/span&gt;:&lt;/div&gt;&lt;div&gt;        - &lt;span style=&quot;color: #73bcf7;&quot;&gt;podSelector&lt;/span&gt;:&lt;/div&gt;&lt;div&gt;            &lt;span style=&quot;color: #73bcf7;&quot;&gt;matchLabels&lt;/span&gt;:&lt;/div&gt;&lt;div&gt;              &lt;span style=&quot;color: rgb(115, 188, 247);&quot;&gt;app.kubernetes.io/instance&lt;/span&gt;: &lt;span style=&quot;color: rgb(240, 171, 0);&quot;&gt;cthub-test&lt;/span&gt;&lt;/div&gt;&lt;div&gt;&lt;div style=&quot;line-height: 18px;&quot;&gt;&lt;span style=&quot;color: #569cd6;&quot;&gt;              app.kubernetes.io/name&lt;/span&gt;: &lt;span style=&quot;color: #ce9178;&quot;&gt;backend&lt;/span&gt;&lt;/div&gt;&lt;/div&gt;&lt;/div&gt;" style="text;html=1;align=left;verticalAlign=middle;whiteSpace=wrap;rounded=0;" parent="1" vertex="1">
          <mxGeometry x="210" y="-250" width="390" height="220" as="geometry" />
        </mxCell>
        <mxCell id="Sw6ZCzjTQ-pOdQDlZojL-12" value="&lt;div style=&quot;color: rgb(212, 212, 212); background-color: rgb(30, 30, 30); font-family: Menlo, Monaco, &amp;quot;Courier New&amp;quot;, monospace; line-height: 18px; white-space: pre;&quot;&gt;&lt;div&gt;    - &lt;span style=&quot;color: #73bcf7;&quot;&gt;ports&lt;/span&gt;:&lt;/div&gt;&lt;div&gt;        - &lt;span style=&quot;color: #73bcf7;&quot;&gt;protocol&lt;/span&gt;: &lt;span style=&quot;color: #f0ab00;&quot;&gt;TCP&lt;/span&gt;&lt;/div&gt;&lt;div&gt;          &lt;span style=&quot;color: #73bcf7;&quot;&gt;port&lt;/span&gt;: &lt;span style=&quot;color: #ace12e;&quot;&gt;5432&lt;/span&gt;&lt;/div&gt;&lt;div&gt;      &lt;span style=&quot;color: #73bcf7;&quot;&gt;from&lt;/span&gt;:&lt;/div&gt;&lt;div&gt;        - &lt;span style=&quot;color: #73bcf7;&quot;&gt;podSelector&lt;/span&gt;:&lt;/div&gt;&lt;div&gt;            &lt;span style=&quot;color: #73bcf7;&quot;&gt;matchLabels&lt;/span&gt;:&lt;/div&gt;&lt;div&gt;              &lt;span style=&quot;color: #73bcf7;&quot;&gt;cronjob&lt;/span&gt;: cthub&lt;span style=&quot;color: #f0ab00;&quot;&gt;-db-backup&lt;/span&gt;&lt;/div&gt;&lt;/div&gt;" style="text;html=1;align=left;verticalAlign=middle;whiteSpace=wrap;rounded=0;" parent="1" vertex="1">
          <mxGeometry x="171" y="40" width="280" height="120" as="geometry" />
        </mxCell>
        <mxCell id="Sw6ZCzjTQ-pOdQDlZojL-14" value="&lt;div&gt;&amp;nbsp; podSelector:&lt;/div&gt;&lt;div&gt;&amp;nbsp; &amp;nbsp; matchLabels:&lt;/div&gt;&lt;div&gt;&amp;nbsp; &amp;nbsp; &amp;nbsp; postgres-operator.crunchydata.com/cluster: cthub-test-crunchy&lt;/div&gt;" style="text;html=1;align=left;verticalAlign=middle;whiteSpace=wrap;rounded=0;" parent="1" vertex="1">
          <mxGeometry x="140" y="210" width="370" height="60" as="geometry" />
        </mxCell>
      </root>
    </mxGraphModel>
  </diagram>
</mxfile>
